<svg xmlns="http://www.w3.org/2000/svg" version="1.1" xmlns:xlink="http://www.w3.org/1999/xlink" xmlns:svgjs="http://svgjs.dev/svgjs" width="100%" height="100%" viewBox="0 0 1000 600"><rect width="1000" height="600" x="0" y="0" fill="#234e70"/><g><circle r="166.66666666666666" cx="431.29227701822913" cy="453.5145597769606" fill="#fbf8be" transform="matrix(0.47236535799781665,0,0,0.47236535799781665,0,85.77542384677831)"/><path d="M439.1041780024996 528.5145824015663L375.6646488883972 528.5145824015663L375.6646488883972 522.3337351807065L404.07937708429426 519.8728423057344L409.65930860312596 519.8728423057344L439.1041780024996 522.3337351807065L439.1041780024996 528.5145824015663ZM415.84015582398575 528.5145824015663L396.6680834259485 528.5145824015663Q397.0686938939672 511.20248717647286 397.0686938939672 493.8903919513795Q397.0686938939672 476.60691175971607 397.0686938939672 459.0945113006134L397.0686938939672 459.0945113006134L397.0686938939672 447.9632632963798Q397.0686938939672 430.4508628372771 397.0686938939672 413.02430747846415Q397.0686938939672 395.6263671530811 396.6680834259485 378.5145771619971L396.6680834259485 378.5145771619971L415.84015582398575 378.5145771619971Q415.6112355565465 395.6263671530811 415.5253904562568 413.2532277459034Q415.4109303225372 430.8514733052958 415.4109303225372 450.22385093734243L415.4109303225372 450.22385093734243L415.4109303225372 454.74502621926763Q415.4109303225372 475.57677055623947 415.5253904562568 493.3753213496412Q415.6112355565465 511.20248717647286 415.84015582398575 528.5145824015663L415.84015582398575 528.5145824015663ZM456.61657846160233 455.77516742274423L406.33996472525683 455.77516742274423L406.33996472525683 448.99340449985647L456.61657846160233 448.99340449985647L456.61657846160233 455.77516742274423ZM462.1965099804341 477.83735819720204L454.98552155609764 477.83735819720204L452.09540317967713 454.9739464867069L452.09540317967713 449.5943202018845L454.98552155609764 427.36043922684723L462.1965099804341 427.36043922684723L462.1965099804341 477.83735819720204ZM404.07937708429426 386.9846270572494L375.6646488883972 384.69542438285686L375.6646488883972 378.5145771619971L406.33996472525683 378.5145771619971L406.33996472525683 386.9846270572494L404.07937708429426 386.9846270572494ZM486.91989886387313 415.59966048715575L478.2495437346115 415.59966048715575L471.2388605442845 379.773638632913L480.7390516430134 385.7255655863335L406.33996472525683 385.7255655863335L406.33996472525683 378.5145771619971L485.66083739295726 378.5145771619971L486.91989886387313 415.59966048715575Z " fill="#" transform="matrix(0.47236535799781665,0,0,0.47236535799781665,0,85.77542384677831)"/><path d="M735.9670657461754 525.7706658384996L681.2922733786967 525.7706658384996L681.2922733786967 520.2828614001281L706.5209298939878 518.0979022255913L710.560563716678 518.0979022255913L735.9670657461754 520.2828614001281L735.9670657461754 525.7706658384996ZM716.9630022281112 525.7706658384996L699.9406458683479 525.7706658384996Q700.2963368967609 510.3997321106536 700.2963368967609 495.0287983828075Q700.2963368967609 479.68327115699094 700.2963368967609 464.1344919149384L700.2963368967609 464.1344919149384L700.2963368967609 454.25136262546386Q700.2963368967609 438.7025833834113 700.2963368967609 423.23002364744724Q700.2963368967609 407.78287041351274 699.9406458683479 392.5897821998731L699.9406458683479 392.5897821998731L716.9630022281112 392.5897821998731Q716.5819046976688 407.78287041351274 716.5056851915804 423.6873406839782Q716.4040591834623 439.6172174564732 716.4040591834623 458.82453299077343L716.4040591834623 458.82453299077343L716.4040591834623 462.48306928302105Q716.4040591834623 479.12432811234197 716.5056851915804 494.77473336251256Q716.5819046976688 510.3997321106536 716.9630022281112 525.7706658384996L716.9630022281112 525.7706658384996ZM783.9091350758374 527.422088470417L783.9091350758374 527.422088470417Q774.7627943452184 527.422088470417 770.4690955022334 524.5765602431131Q766.1499901572187 521.756438517839 764.7018195415374 515.3540000064056L764.7018195415374 515.3540000064056L755.5554788109182 484.05318950606454Q753.5483651505879 476.38042589315626 750.8044629314021 471.90888153596467Q748.0605607122163 467.4119306767436 743.2841383306709 465.4048170164133Q738.5331224511548 463.397703356083 730.3014157935975 463.397703356083L730.3014157935975 463.397703356083L708.731295570554 463.397703356083L708.731295570554 457.528801387269L735.2556836893496 457.528801387269Q745.4945040072371 457.528801387269 752.7099505836145 453.5145740666084Q759.9508036620213 449.5003467459478 763.7871854684754 442.53896518986545Q767.6235672749295 435.5775836337831 767.6235672749295 427.16803146201937L767.6235672749295 427.16803146201937Q767.6235672749295 413.82961789653314 759.5697061315789 406.2330737897134Q751.5158449882281 398.6365296828936 734.874586158907 398.6365296828936L734.874586158907 398.6365296828936L708.5280435543182 398.6365296828936L708.5280435543182 392.5897821998731L737.2627973496799 392.5897821998731Q759.2140151031658 392.5897821998731 771.1804775590592 401.4820579101973Q783.1723465169821 410.348927118492 783.1723465169821 426.9901859478129L783.1723465169821 426.9901859478129Q783.1723465169821 435.95868116422554 778.4975501435545 443.55522527104534Q773.8481602721565 451.12636287583564 764.6001935334193 456.08063077158766Q755.3776332967117 461.00949216531023 741.454870184547 461.92412623837214L741.454870184547 461.92412623837214L741.454870184547 460.0948580922483Q751.3379994740216 460.8316466511037 757.1052754347174 463.67717487840747Q762.8725513954134 466.4972966036817 766.0737706511302 471.7056295197287Q769.2749899068469 476.9393689378052 771.6377945955901 484.96782357912645L771.6377945955901 484.96782357912645L782.9945010027757 522.467820574665L775.4995829040738 518.6314387682107L799.6357598320965 520.2828614001281L799.6357598320965 525.7706658384996Q796.5361665844978 526.5074543973551 792.7760042841321 526.964771433886Q789.0158419837664 527.422088470417 783.9091350758374 527.422088470417ZM706.5209298939878 400.11010680060446L681.2922733786967 398.07758663824467L681.2922733786967 392.5897821998731L708.5280435543182 392.5897821998731L708.5280435543182 400.11010680060446L706.5209298939878 400.11010680060446ZM857.816649479646 528.5145680576854L857.816649479646 528.5145680576854Q844.4528294121303 528.5145680576854 833.8329115638003 523.0267636193139Q823.2384002174999 517.5389591809424 817.1916527344795 506.3855047899929Q811.1703117534885 495.2320503990435 811.1703117534885 478.76863708392904L811.1703117534885 478.76863708392904Q811.1703117534885 463.397703356083 817.4711242568039 452.14262295701553Q823.7719367601192 440.8875425579481 834.0361635800364 434.7645755688392Q844.2749838979239 428.64160857973025 856.3430723619351 428.64160857973025L856.3430723619351 428.64160857973025Q868.2333153117402 428.64160857973025 876.7444934916218 433.67209598157075Q885.2556716715035 438.7025833834113 889.727216028695 447.2899810693815Q894.1987603858868 455.9027852573812 894.1987603858868 466.67514211788813L894.1987603858868 466.67514211788813Q894.1987603858868 473.28083264555755 892.9284352844118 477.65075099463115L892.9284352844118 477.65075099463115L818.2841323217478 477.65075099463115L818.2841323217478 471.98510104205315L871.3329085593389 471.98510104205315Q876.2871764550907 471.98510104205315 877.9385990870082 469.4190443370739Q879.5646152168961 466.87839413412416 879.5646152168961 461.3905896957527L879.5646152168961 461.3905896957527Q879.5646152168961 449.6781922601543 873.3654287216987 442.08164815333447Q867.1408357244718 434.4851040465147 855.9873813335223 434.4851040465147L855.9873813335223 434.4851040465147Q847.9335201901715 434.4851040465147 841.3532361645316 439.5155914483552Q834.7475456368622 444.5460788501958 830.911163830408 453.9718911031394Q827.074782023954 463.397703356083 827.074782023954 476.5582714073627L827.074782023954 476.5582714073627Q827.074782023954 491.37026209055983 831.5463263811455 500.89770035162144Q836.0432772403667 510.3997321106536 843.8938863674814 514.8966829698746Q851.7699019966255 519.3682273270663 861.8308768003067 519.3682273270663L861.8308768003067 519.3682273270663Q871.5361605755747 519.3682273270663 878.7516071519522 515.9891625571431Q885.9670537283293 512.6100977872198 891.658110182937 506.0044072595505L891.658110182937 506.0044072595505L894.579857916329 508.5704639645298Q888.5331104333086 517.7168046951489 879.3867697026897 523.1283896274319Q870.2404289720705 528.5145680576854 857.816649479646 528.5145680576854ZM937.1865618197967 528.5145680576854L937.1865618197967 528.5145680576854Q926.2109529430536 528.5145680576854 919.0971323747942 522.2899750604583Q911.9579053045054 516.0653820632315 911.9579053045054 504.7340821580756L911.9579053045054 504.7340821580756Q911.9579053045054 497.59485508778675 915.0574985521041 492.0308311433268Q918.1824983017325 486.4414006968373 925.3979448781097 482.0460758457342Q932.6133914544871 477.65075099463115 944.706886420528 474.19546671861946L944.706886420528 474.19546671861946Q952.3796500334361 471.80725552784673 960.7892022051999 469.6222963533099Q969.1987543769635 467.4119306767436 976.515826961459 465.7605080448262L976.515826961459 465.7605080448262L976.515826961459 470.33367841013586Q969.1987543769635 472.16294655625967 961.7038362782619 474.271686224708Q954.20891817956 476.38042589315626 947.9843251823331 478.76863708392904L947.9843251823331 478.76863708392904Q936.2719277467347 482.9607099187961 931.4446923611301 488.8296118876101Q926.5920504734961 494.6731073543945 926.5920504734961 502.3458709673028L926.5920504734961 502.3458709673028Q926.5920504734961 510.78082964109603 931.2414403448943 515.1507479901695Q935.9162367183217 519.5460728412727 943.58900033123 519.5460728412727L943.58900033123 519.5460728412727Q947.8064796681267 519.5460728412727 951.8207069887872 517.8946502093554Q955.8603408114773 516.2686340794676 960.9670477194063 512.2290002567775Q966.099161129365 508.2147729361168 973.0605426854472 501.25339138003443L973.0605426854472 501.25339138003443L974.686558815335 509.86619556803413L970.3166404662616 509.86619556803413Q964.6255840116539 515.8875365490251 959.5950966098135 520.1050158859216Q954.564609207973 524.2970887207887 949.2800567858376 526.4058283892371Q943.9700978616725 528.5145680576854 937.1865618197967 528.5145680576854ZM986.0432652225206 528.3367225434788L986.0432652225206 528.3367225434788Q977.8115585649632 528.3367225434788 973.6957052361847 522.7472920969894Q969.579851907406 517.1832681525294 969.0209088627571 507.4779843772613L969.0209088627571 507.4779843772613L969.0209088627571 506.9190413326124L969.0209088627571 460.0948580922483Q969.0209088627571 449.85603777436074 966.8359496882204 444.26660732787127Q964.6255840116539 438.7025833834113 960.0524136463446 436.492217706845Q955.4792432810348 434.3072585323082 948.1621706965395 434.3072585323082L948.1621706965395 434.3072585323082Q942.8776182744041 434.3072585323082 937.567659350239 435.8570551561076Q932.257700426074 437.40685177990696 926.2109529430536 440.70969704374164L926.2109529430536 440.70969704374164L934.086968572198 435.78083565001907L931.1652208388057 450.21172880277373Q930.4284322799501 455.16599669852576 928.1418470972953 457.17311035885604Q925.8552619146406 459.18022401918637 922.3745711365996 459.18022401918637L922.3745711365996 459.18022401918637Q915.7942871109597 459.18022401918637 914.3207099932488 452.5999399935465L914.3207099932488 452.5999399935465Q917.0646122124344 441.4464856025971 926.9477415019091 435.04404709116363Q936.8308707913836 428.64160857973025 952.2018045192297 428.64160857973025L952.2018045192297 428.64160857973025Q968.1062747896951 428.64160857973025 975.8806644107215 436.23815268655005Q983.6550540317478 443.80929029134035 983.6550540317478 460.8316466511037L983.6550540317478 460.8316466511037L983.6550540317478 506.0044072595505Q983.6550540317478 514.6172114475502 985.6621676920781 517.6405851890604Q987.6946878544379 520.6385524285411 991.3532241466855 520.6385524285411L991.3532241466855 520.6385524285411Q993.7160288354287 520.6385524285411 995.5452969815526 519.6476988493907Q997.3745651276763 518.6314387682107 999.5849308042427 516.2686340794676L999.5849308042427 516.2686340794676L1002.506678537635 519.0125362986532Q999.5849308042427 523.7635521781692 995.4690774754642 526.050137360824Q991.3532241466855 528.3367225434788 986.0432652225206 528.3367225434788ZM1059.39183658168 525.7706658384996L1010.7383851951922 525.7706658384996L1010.7383851951922 520.6385524285411L1031.9528143898226 518.6314387682107L1037.7963098566072 518.6314387682107L1059.39183658168 520.6385524285411L1059.39183658168 525.7706658384996ZM1043.2841142949787 525.7706658384996L1027.2017985103066 525.7706658384996Q1027.379644024513 520.1050158859216 1027.481270032631 512.8641628075147Q1027.5574895387197 505.6487162311375 1027.6591155468377 498.05217212431774Q1027.735335052926 490.45562801749793 1027.735335052926 483.8753439918581L1027.735335052926 483.8753439918581L1027.735335052926 389.66803446648095L1011.6530192682542 388.9312459076255L1011.6530192682542 384.002384513903L1040.5402120757929 378.51458007553146L1043.2841142949787 380.1660027074488L1042.7505777523593 408.5196589723682L1042.7505777523593 483.8753439918581Q1042.7505777523593 490.45562801749793 1042.8267972584476 498.05217212431774Q1042.9284232665657 505.6487162311375 1043.0300492746837 512.8641628075147Q1043.106268780772 520.1050158859216 1043.2841142949787 525.7706658384996L1043.2841142949787 525.7706658384996ZM1102.3796380155902 525.7706658384996L1075.1184613379392 525.7706658384996L1075.1184613379392 520.2828614001281L1100.3725243552599 518.0979022255913L1102.3796380155902 518.0979022255913L1102.3796380155902 525.7706658384996ZM1110.7891901873538 525.7706658384996L1093.79224032962 525.7706658384996Q1094.1479313580328 510.3997321106536 1094.1479313580328 495.0287983828075Q1094.1479313580328 479.68327115699094 1094.1479313580328 464.1344919149384L1094.1479313580328 464.1344919149384L1094.1479313580328 454.25136262546386Q1094.1479313580328 438.7025833834113 1094.1479313580328 423.23002364744724Q1094.1479313580328 407.78287041351274 1093.79224032962 392.5897821998731L1093.79224032962 392.5897821998731L1110.7891901873538 392.5897821998731Q1110.6113446731474 407.78287041351274 1110.5097186650294 423.4332756636832Q1110.4334991589408 439.05827441182424 1110.4334991589408 456.2584762857942L1110.4334991589408 456.2584762857942L1110.4334991589408 460.2727036064548Q1110.4334991589408 478.76863708392904 1110.5097186650294 494.5714813462766Q1110.6113446731474 510.3997321106536 1110.7891901873538 525.7706658384996L1110.7891901873538 525.7706658384996ZM1175.5503638605433 525.7706658384996L1102.3796380155902 525.7706658384996L1102.3796380155902 519.5460728412727L1170.9771934952337 519.5460728412727L1162.7454868376765 524.1192432065823L1168.9700798349033 492.2848961636218L1176.6428434478116 492.2848961636218L1175.5503638605433 525.7706658384996ZM1146.4599190367685 461.1873376795167L1102.3796380155902 461.1873376795167L1102.3796380155902 455.16599669852576L1146.4599190367685 455.16599669852576L1146.4599190367685 461.1873376795167ZM1151.592032446727 480.03896218540393L1145.1895939352935 480.03896218540393L1142.6235372303142 459.73916706383534L1142.6235372303142 455.9027852573812L1145.1895939352935 435.95868116422554L1151.592032446727 435.95868116422554L1151.592032446727 480.03896218540393ZM1100.3725243552599 400.11010680060446L1075.1184613379392 398.07758663824467L1075.1184613379392 392.5897821998731L1102.3796380155902 392.5897821998731L1102.3796380155902 400.11010680060446L1100.3725243552599 400.11010680060446ZM1173.543250200213 425.51660883010203L1165.6672345710685 425.51660883010203L1159.6458935900778 393.88551380337753L1167.6743482313989 398.9922207113065L1102.3796380155902 398.9922207113065L1102.3796380155902 392.5897821998731L1172.2475185967085 392.5897821998731L1173.543250200213 425.51660883010203ZM1225.118449320093 528.5145680576854L1225.118449320093 528.5145680576854Q1216.3532061199162 528.5145680576854 1209.2139790496276 526.5836739034435Q1202.0747519793388 524.6781862512312 1194.579833880637 521.19749547319L1194.579833880637 521.19749547319L1194.579833880637 499.4241232339106L1202.6336950239877 499.4241232339106L1207.0036133730612 522.467820574665L1200.2454838332148 522.1121295462519L1200.2454838332148 515.531845520612Q1205.3775972431733 519.0125362986532 1211.0432471957513 520.8418044447772Q1216.7088971483292 522.6710725909008 1224.76275829168 522.6710725909008L1224.76275829168 522.6710725909008Q1236.8308467556915 522.6710725909008 1242.9538137448003 517.7168046951489Q1249.0767807339093 512.7879433014264 1249.0767807339093 505.08977318648857L1249.0767807339093 505.08977318648857Q1249.0767807339093 498.3316436466422 1244.9609274051306 494.0379448036571Q1240.845074076352 489.744245960672 1229.6916196854027 486.2635551826308L1229.6916196854027 486.2635551826308L1220.1895879263705 482.78286440458965Q1209.036133535421 478.76863708392904 1202.5320690158696 472.4424180785841Q1196.028004496318 466.1416055752687 1196.028004496318 455.9027852573812L1196.028004496318 455.9027852573812Q1196.028004496318 444.36823333598926 1204.9202802066425 436.492217706845Q1213.7871494149372 428.64160857973025 1230.2505627300516 428.64160857973025L1230.2505627300516 428.64160857973025Q1238.4822693876088 428.64160857973025 1244.9609274051306 430.6487222400606Q1251.4649919246822 432.65583590039085 1258.2231214645285 436.8733152372875L1258.2231214645285 436.8733152372875L1257.6895849219088 456.43632180000066L1250.3725123374136 456.43632180000066L1245.9771874863106 435.04404709116363L1251.6428374388886 436.13652667843206L1251.6428374388886 441.98002214521654Q1246.155033000517 438.14364033876234 1241.048326092588 436.4159982007565Q1235.9162126826295 434.6629495607212 1230.2505627300516 434.6629495607212L1230.2505627300516 434.6629495607212Q1219.808490395928 434.6629495607212 1214.5239379737925 439.23611992603077Q1209.2139790496276 443.80929029134035 1209.2139790496276 451.12636287583564L1209.2139790496276 451.12636287583564Q1209.2139790496276 457.732053403505 1213.6093039007305 461.84790673228366Q1217.9792222498043 465.96376006106226 1227.8623515392787 469.4190443370739L1227.8623515392787 469.4190443370739L1237.1865377841043 472.72188960090864Q1251.1093008962691 477.47290548042463 1256.9527963630535 484.05318950606454Q1262.7962918298379 490.6588800337339 1262.7962918298379 500.16091179276606L1262.7962918298379 500.16091179276606Q1262.7962918298379 508.03692742191026 1258.5025929868527 514.5155854394322Q1254.2088941438678 521.0196499589836 1245.9771874863106 524.7544057573198Q1237.7454808287534 528.5145680576854 1225.118449320093 528.5145680576854ZM1333.4263674718413 438.14364033876234L1299.5849067685506 438.14364033876234L1299.5849067685506 431.385510798916L1333.4263674718413 431.385510798916L1333.4263674718413 438.14364033876234ZM1314.3968974517477 528.5145680576854L1314.3968974517477 528.5145680576854Q1302.8623455303557 528.5145680576854 1297.3745410919844 522.467820574665Q1291.8867366536126 516.446479593674 1291.8867366536126 504.17513911342667L1291.8867366536126 504.17513911342667Q1291.8867366536126 499.80522076435307 1291.988362661731 496.32452998631186Q1292.0645821678193 492.8438392082707 1292.0645821678193 487.9149778145482L1292.0645821678193 487.9149778145482L1292.0645821678193 438.14364033876234L1273.771900706581 438.14364033876234L1273.771900706581 432.65583590039085L1295.9263704763027 430.82656775426705L1292.2678341840553 433.5704699734528L1297.7556386224267 402.85400901979017L1307.8166134261078 402.85400901979017L1307.0798248672525 434.12941301810173L1307.0798248672525 436.31437219263853L1307.0798248672525 504.17513911342667Q1307.0798248672525 512.7879433014264 1310.2810441229692 516.6243251078804Q1313.482263378686 520.4607069143347 1319.5036043596767 520.4607069143347L1319.5036043596767 520.4607069143347Q1323.5432381823668 520.4607069143347 1326.6428314299653 519.2666013189482Q1329.7678311795937 518.0979022255913 1333.4263674718413 515.8875365490251L1333.4263674718413 515.8875365490251L1336.1702696910272 519.0125362986532Q1332.3084813825435 523.5857066639628 1327.023928960408 526.050137360824Q1321.713970036243 528.5145680576854 1314.3968974517477 528.5145680576854ZM1373.1113236419167 528.5145680576854L1373.1113236419167 528.5145680576854Q1362.1357147651736 528.5145680576854 1354.996487694885 522.2899750604583Q1347.857260624596 516.0653820632315 1347.857260624596 504.7340821580756L1347.857260624596 504.7340821580756Q1347.857260624596 497.59485508778675 1350.9822603742243 492.0308311433268Q1354.0818536218228 486.4414006968373 1361.32270670023 482.0460758457342Q1368.538153276607 477.65075099463115 1380.6062417406185 474.19546671861946L1380.6062417406185 474.19546671861946Q1388.3044118555563 471.80725552784673 1396.7139640273201 469.6222963533099Q1405.1235161990837 467.4119306767436 1412.440588783579 465.7605080448262L1412.440588783579 465.7605080448262L1412.440588783579 470.33367841013586Q1405.1235161990837 472.16294655625967 1397.6285981003819 474.271686224708Q1390.13368000168 476.38042589315626 1383.909087004453 478.76863708392904L1383.909087004453 478.76863708392904Q1372.1966895688547 482.9607099187961 1367.344047681221 488.8296118876101Q1362.4914057935866 494.6731073543945 1362.4914057935866 502.3458709673028L1362.4914057935866 502.3458709673028Q1362.4914057935866 510.78082964109603 1367.1662021670143 515.1507479901695Q1371.840998540442 519.5460728412727 1379.5137621533502 519.5460728412727L1379.5137621533502 519.5460728412727Q1383.7312414902467 519.5460728412727 1387.7454688109071 517.8946502093554Q1391.7596961315678 516.2686340794676 1396.8918095415263 512.2290002567775Q1402.023922951485 508.2147729361168 1408.9598980055378 501.25339138003443L1408.9598980055378 501.25339138003443L1410.611320637455 509.86619556803413L1406.215995786352 509.86619556803413Q1400.5503458337741 515.8875365490251 1395.5198584319335 520.1050158859216Q1390.4893710300928 524.2970887207887 1385.1794121059281 526.4058283892371Q1379.869453181763 528.5145680576854 1373.1113236419167 528.5145680576854ZM1421.942620542611 528.3367225434788L1421.942620542611 528.3367225434788Q1413.710913885054 528.3367225434788 1409.5950605562753 522.7472920969894Q1405.4792072274965 517.1832681525294 1404.945670684877 507.4779843772613L1404.945670684877 507.4779843772613L1404.945670684877 506.9190413326124L1404.945670684877 460.0948580922483Q1404.945670684877 449.85603777436074 1402.735305008311 444.26660732787127Q1400.5503458337741 438.7025833834113 1395.9771754684646 436.492217706845Q1391.404005103155 434.3072585323082 1384.0869325186598 434.3072585323082L1384.0869325186598 434.3072585323082Q1378.7769735944946 434.3072585323082 1373.4670146703295 435.8570551561076Q1368.1824622481943 437.40685177990696 1362.1357147651736 440.70969704374164L1362.1357147651736 440.70969704374164L1370.0117303943177 435.78083565001907L1367.0645761588964 450.21172880277373Q1366.3531941020703 455.16599669852576 1364.0666089194156 457.17311035885604Q1361.7800237367608 459.18022401918637 1358.2993329587196 459.18022401918637L1358.2993329587196 459.18022401918637Q1351.7190489330796 459.18022401918637 1350.2454718153688 452.5999399935465L1350.2454718153688 452.5999399935465Q1352.9893740345544 441.4464856025971 1362.8725033240291 435.04404709116363Q1372.7556326135038 428.64160857973025 1388.1011598393202 428.64160857973025L1388.1011598393202 428.64160857973025Q1404.0310366118154 428.64160857973025 1411.8054262328417 436.23815268655005Q1419.5798158538678 443.80929029134035 1419.5798158538678 460.8316466511037L1419.5798158538678 460.8316466511037L1419.5798158538678 506.0044072595505Q1419.5798158538678 514.6172114475502 1421.5869295141981 517.6405851890604Q1423.5940431745285 520.6385524285411 1427.252579466776 520.6385524285411L1427.252579466776 520.6385524285411Q1429.640790657549 520.6385524285411 1431.4700588036726 519.6476988493907Q1433.2993269497965 518.6314387682107 1435.4842861243335 516.2686340794676L1435.4842861243335 516.2686340794676L1438.4060338577253 519.0125362986532Q1435.4842861243335 523.7635521781692 1431.3684327955548 526.050137360824Q1427.252579466776 528.3367225434788 1421.942620542611 528.3367225434788ZM1502.4304189720594 438.14364033876234L1468.5889582687685 438.14364033876234L1468.5889582687685 431.385510798916L1502.4304189720594 431.385510798916L1502.4304189720594 438.14364033876234ZM1483.4263554539955 528.5145680576854L1483.4263554539955 528.5145680576854Q1471.8918035326033 528.5145680576854 1466.4039990942317 522.467820574665Q1460.9161946558604 516.446479593674 1460.9161946558604 504.17513911342667L1460.9161946558604 504.17513911342667Q1460.9161946558604 499.80522076435307 1461.0178206639785 496.32452998631186Q1461.0940401700668 492.8438392082707 1461.0940401700668 487.9149778145482L1461.0940401700668 487.9149778145482L1461.0940401700668 438.14364033876234L1442.8013587088287 438.14364033876234L1442.8013587088287 432.65583590039085L1464.930421976521 430.82656775426705L1461.2718856842732 433.5704699734528L1466.759690122645 402.85400901979017L1476.820664926326 402.85400901979017L1476.1092828695 434.12941301810173L1476.1092828695 436.31437219263853L1476.1092828695 504.17513911342667Q1476.1092828695 512.7879433014264 1479.3105021252168 516.6243251078804Q1482.5117213809333 520.4607069143347 1488.5330623619243 520.4607069143347L1488.5330623619243 520.4607069143347Q1492.5726961846144 520.4607069143347 1495.6722894322131 519.2666013189482Q1498.7718826798116 518.0979022255913 1502.4304189720594 515.8875365490251L1502.4304189720594 515.8875365490251L1505.174321191245 519.0125362986532Q1501.337939384791 523.5857066639628 1496.027980460626 526.050137360824Q1490.7434280384907 528.5145680576854 1483.4263554539955 528.5145680576854ZM1562.7962677941457 528.5145680576854L1562.7962677941457 528.5145680576854Q1549.4578542286595 528.5145680576854 1538.8379363803297 523.0267636193139Q1528.243425034029 517.5389591809424 1522.1966775510086 506.3855047899929Q1516.1499300679882 495.2320503990435 1516.1499300679882 478.76863708392904L1516.1499300679882 478.76863708392904Q1516.1499300679882 463.397703356083 1522.4761490733333 452.14262295701553Q1528.7769615766485 440.8875425579481 1539.015781894536 434.7645755688392Q1549.280008714453 428.64160857973025 1561.3480971784645 428.64160857973025L1561.3480971784645 428.64160857973025Q1573.2383401282693 428.64160857973025 1581.7495183081512 433.67209598157075Q1590.2352899860032 438.7025833834113 1594.7322408452244 447.2899810693815Q1599.203785202416 455.9027852573812 1599.203785202416 466.67514211788813L1599.203785202416 466.67514211788813Q1599.203785202416 473.28083264555755 1597.9334601009411 477.65075099463115L1597.9334601009411 477.65075099463115L1523.2891571382772 477.65075099463115L1523.2891571382772 471.98510104205315L1576.337933375868 471.98510104205315Q1581.2922012716201 471.98510104205315 1582.918217401508 469.4190443370739Q1584.5696400334252 466.87839413412416 1584.5696400334252 461.3905896957527L1584.5696400334252 461.3905896957527Q1584.5696400334252 449.6781922601543 1578.3450470361984 442.08164815333447Q1572.145860541001 434.4851040465147 1560.966999648022 434.4851040465147L1560.966999648022 434.4851040465147Q1552.9385450067007 434.4851040465147 1546.3328544790313 439.5155914483552Q1539.7525704533914 444.5460788501958 1535.9161886469371 453.9718911031394Q1532.0798068404831 463.397703356083 1532.0798068404831 476.5582714073627L1532.0798068404831 476.5582714073627Q1532.0798068404831 491.37026209055983 1536.5513511976749 500.89770035162144Q1541.048302056896 510.3997321106536 1548.8989111840106 514.8966829698746Q1556.774926813155 519.3682273270663 1566.8359016168358 519.3682273270663L1566.8359016168358 519.3682273270663Q1576.5157788900744 519.3682273270663 1583.7566319684813 515.9891625571431Q1590.9720785448587 512.6100977872198 1596.6377284974367 506.0044072595505L1596.6377284974367 506.0044072595505L1599.5848827328584 508.5704639645298Q1593.5381352498378 517.7168046951489 1584.3917945192186 523.1283896274319Q1575.2454537885997 528.5145680576854 1562.7962677941457 528.5145680576854ZM1652.2525614400067 525.7706658384996L1635.7891481248923 525.7706658384996Q1636.170245655335 510.3997321106536 1636.170245655335 495.0287983828075Q1636.170245655335 479.68327115699094 1636.170245655335 464.1344919149384L1636.170245655335 464.1344919149384L1636.170245655335 454.25136262546386Q1636.170245655335 438.7025833834113 1636.170245655335 423.23002364744724Q1636.170245655335 407.78287041351274 1635.7891481248923 392.5897821998731L1635.7891481248923 392.5897821998731L1652.2525614400067 392.5897821998731Q1652.0747159258005 407.78287041351274 1651.9730899176823 423.23002364744724Q1651.896870411594 438.7025833834113 1651.896870411594 454.25136262546386L1651.896870411594 454.25136262546386L1651.896870411594 473.814369188177Q1651.896870411594 483.51965296344514 1651.9730899176823 496.9596925370493Q1652.0747159258005 510.3997321106536 1652.2525614400067 525.7706658384996L1652.2525614400067 525.7706658384996ZM1670.9263404316875 525.7706658384996L1617.1407756352412 525.7706658384996L1617.1407756352412 520.2828614001281L1642.3694321505325 518.0979022255913L1646.231220459016 518.0979022255913L1670.9263404316875 520.2828614001281L1670.9263404316875 525.7706658384996ZM1642.3694321505325 400.11010680060446L1617.1407756352412 398.07758663824467L1617.1407756352412 392.5897821998731L1671.4598769743072 392.5897821998731L1671.4598769743072 398.07758663824467L1646.231220459016 400.11010680060446L1642.3694321505325 400.11010680060446ZM1741.353164057455 525.7706658384996L1691.5818265816695 525.7706658384996L1691.5818265816695 520.2828614001281L1715.362312481279 518.0979022255913L1718.6651577451137 518.0979022255913L1741.353164057455 520.2828614001281L1741.353164057455 525.7706658384996ZM1713.1773533067424 400.4657978290174L1690.6671925086073 398.07758663824467L1690.6671925086073 392.5897821998731L1736.0432051332903 392.5897821998731L1736.0432051332903 398.07758663824467L1717.0137351131964 400.11010680060446L1713.1773533067424 400.4657978290174ZM1725.0675962565472 392.5897821998731L1643.8430092682431 489.92209147487847L1643.1062207093876 479.8611166711974L1645.1133343697181 479.8611166711974L1648.4161796335527 475.6436373343008L1716.4547920685475 392.5897821998731L1725.0675962565472 392.5897821998731ZM1729.6407666218568 525.7706658384996L1712.2627192336802 525.7706658384996L1671.4598769743072 452.42209447934005L1681.5208517779881 440.35400601532865L1729.6407666218568 525.7706658384996ZM1778.1163724941377 525.7706658384996L1750.8551958164874 525.7706658384996L1750.8551958164874 520.2828614001281L1776.1092588338076 518.0979022255913L1778.1163724941377 518.0979022255913L1778.1163724941377 525.7706658384996ZM1786.5259246659018 525.7706658384996L1769.5035683061385 525.7706658384996Q1769.8846658365808 510.3997321106536 1769.8846658365808 495.0287983828075Q1769.8846658365808 479.68327115699094 1769.8846658365808 464.1344919149384L1769.8846658365808 464.1344919149384L1769.8846658365808 454.25136262546386Q1769.8846658365808 438.7025833834113 1769.8846658365808 423.23002364744724Q1769.8846658365808 407.78287041351274 1769.5035683061385 392.5897821998731L1769.5035683061385 392.5897821998731L1786.5259246659018 392.5897821998731Q1786.3480791516952 407.78287041351274 1786.2464531435774 423.4332756636832Q1786.1702336374885 439.05827441182424 1786.1702336374885 456.2584762857942L1786.1702336374885 456.2584762857942L1786.1702336374885 460.2727036064548Q1786.1702336374885 478.76863708392904 1786.2464531435774 494.5714813462766Q1786.3480791516952 510.3997321106536 1786.5259246659018 525.7706658384996L1786.5259246659018 525.7706658384996ZM1851.287098339091 525.7706658384996L1778.1163724941377 525.7706658384996L1778.1163724941377 519.5460728412727L1846.7139279737814 519.5460728412727L1838.4822213162245 524.1192432065823L1844.7068143134513 492.2848961636218L1852.3795779263598 492.2848961636218L1851.287098339091 525.7706658384996ZM1822.1966535153163 461.1873376795167L1778.1163724941377 461.1873376795167L1778.1163724941377 455.16599669852576L1822.1966535153163 455.16599669852576L1822.1966535153163 461.1873376795167ZM1827.3287669252747 480.03896218540393L1820.9263284138412 480.03896218540393L1818.3602717088622 459.73916706383534L1818.3602717088622 455.9027852573812L1820.9263284138412 435.95868116422554L1827.3287669252747 435.95868116422554L1827.3287669252747 480.03896218540393ZM1776.1092588338076 400.11010680060446L1750.8551958164874 398.07758663824467L1750.8551958164874 392.5897821998731L1778.1163724941377 392.5897821998731L1778.1163724941377 400.11010680060446L1776.1092588338076 400.11010680060446ZM1849.279984678761 425.51660883010203L1841.4039690496168 425.51660883010203L1835.357221566596 393.88551380337753L1843.4110827099469 398.9922207113065L1778.1163724941377 398.9922207113065L1778.1163724941377 392.5897821998731L1847.9842530752564 392.5897821998731L1849.279984678761 425.51660883010203Z " fill="#fbf8be" transform="matrix(0.47236535799781665,0,0,0.47236535799781665,0,85.77542384677831)"/></g></svg>